# xmcd
#
# Track frame offsets: 
#        150
#        11715
#        22100
#        34200
#        45575
#        58260
#        73157
#        87347
#        101055
#        116925
#        131245
#        144692
#        161182
#        184122
#        199977
#        221402
#        234452
#        249035
#
# Disc length: 3487 seconds
#
# Revision: 0
# Processed by: cddbd v1.5.2PL0 Copyright (c) Steve Scherf et al.
# Submitted via: ExactAudioCopy v0.95b4
#
DISCID=150d9d12
DTITLE=Johnny Rivers  - Secret Agent Man - The Ultimate Johnny Rivers 
DTITLE=Anthology - Disc 1
DYEAR=1900
DGENRE=
TTITLE0=Memphis
TTITLE1=Maybelline
TTITLE2=Mountain Of Love
TTITLE3=Midnight Special
TTITLE4=Seventh Son
TTITLE5=Where Have All The Flowers Gone
TTITLE6=Secret Agent Man
TTITLE7=(I Washed My Hands In) Muddy Water
TTITLE8=Poor Side Of Town
TTITLE9=Baby I Need Your Lovin
TTITLE10=The Tracks Of My Tears
TTITLE11=Summer Rain
TTITLE12=Positively 4th Street
TTITLE13=Muddy River
TTITLE14=Into The Mystic
TTITLE15=Sea Cruise
TTITLE16=Rockin' Pneumonia - Boogie Woogie Flu
TTITLE17=Blue Suede Shoes
EXTD=
EXTT0=
EXTT1=
EXTT2=
EXTT3=
EXTT4=
EXTT5=
EXTT6=
EXTT7=
EXTT8=
EXTT9=
EXTT10=
EXTT11=
EXTT12=
EXTT13=
EXTT14=
EXTT15=
EXTT16=
EXTT17=
PLAYORDER=
